<?xml version="1.0" standalone="no"?>
<!DOCTYPE svg PUBLIC "-//W3C//DTD SVG 20010904//EN"
 "http://www.w3.org/TR/2001/REC-SVG-20010904/DTD/svg10.dtd">
<svg version="1.0" xmlns="http://www.w3.org/2000/svg"
 width="512.000000pt" height="512.000000pt" viewBox="0 0 512.000000 512.000000"
 preserveAspectRatio="xMidYMid meet">
<metadata>
Created by potrace 1.11, written by Peter Selinger 2001-2013
</metadata>
<g transform="translate(0.000000,512.000000) scale(0.100000,-0.100000)"
fill="#000000" stroke="none">
<path d="M510 4811 c-84 -26 -168 -98 -211 -181 l-24 -45 -3 -2017 -2 -2017
21 -56 c28 -77 107 -156 184 -184 l56 -21 2037 2 2037 3 50 27 c60 32 124 97
156 158 l24 45 3 2012 2 2012 -22 58 c-29 79 -112 162 -191 191 l-58 22 -2017
-1 c-1109 0 -2028 -4 -2042 -8z m1938 -234 c28 -9 38 -18 40 -38 3 -22 -25
-53 -188 -209 l-192 -184 50 -16 c105 -35 126 -66 143 -216 6 -54 15 -101 20
-102 5 -2 22 -14 37 -26 15 -13 41 -29 57 -37 23 -11 31 -22 33 -47 3 -28 0
-32 -20 -32 -12 0 -45 -11 -73 -24 -27 -13 -58 -27 -67 -30 -14 -4 -15 -10 -6
-40 31 -100 -76 -308 -173 -337 -34 -11 -44 -9 -92 15 -30 14 -67 36 -81 47
-47 37 -24 87 26 56 42 -27 104 -39 147 -27 34 9 43 18 64 63 31 64 47 122 47
165 l0 33 -109 -2 c-60 -1 -117 3 -126 9 -12 6 -26 5 -43 -4 -44 -23 -62 -3
-62 67 0 52 2 60 16 55 52 -20 62 -19 66 11 l3 28 100 5 c119 7 210 33 199 59
-11 24 -32 93 -38 122 -7 35 -43 78 -75 91 -14 6 -74 14 -133 17 -131 8 -143
16 -140 92 2 45 0 50 -15 44 -44 -18 -50 -16 -91 37 -22 29 -84 96 -137 148
-110 109 -117 129 -60 178 58 51 137 51 169 0 14 -23 10 -25 -48 -32 -54 -5
-72 -17 -63 -40 9 -24 52 -30 88 -12 18 9 42 16 54 16 33 0 92 -66 116 -129
16 -43 49 -182 49 -207 0 -2 6 -4 13 -4 9 0 22 31 36 85 54 204 150 336 266
366 38 10 143 2 193 -14z m-982 -164 c81 -80 163 -186 234 -301 46 -74 58 -83
80 -57 15 18 47 20 53 3 2 -7 -2 -22 -9 -34 -26 -39 -55 -176 -49 -224 8 -50
26 -90 49 -109 26 -22 19 -39 -16 -43 -30 -3 -33 -7 -36 -38 -2 -26 4 -46 22
-70 47 -65 51 -77 38 -126 -18 -66 -16 -94 7 -94 19 0 31 -18 31 -49 0 -24
-30 -50 -61 -53 -19 -2 -28 5 -42 35 -10 20 -24 37 -30 37 -7 0 -55 -40 -107
-89 -83 -77 -101 -99 -134 -169 -21 -46 -44 -115 -51 -159 -17 -91 -20 -381
-5 -435 7 -24 31 -56 76 -97 35 -34 69 -61 73 -61 5 0 48 32 96 72 70 57 95
72 121 72 76 0 60 -27 -123 -200 -163 -155 -192 -196 -193 -266 0 -39 26 -115
79 -229 16 -36 33 -90 37 -118 7 -51 6 -53 -17 -49 -28 4 -76 92 -135 248 -74
196 -73 201 31 330 41 50 75 95 75 100 0 4 -12 12 -27 18 -44 15 -126 95 -158
154 -29 52 -30 55 -29 193 3 328 84 550 241 662 43 31 77 65 101 102 19 31 46
68 60 83 l25 27 -32 42 c-36 49 -40 88 -11 114 27 25 25 53 -4 65 -13 5 -27
18 -31 29 -4 14 -21 23 -60 32 -59 13 -89 37 -83 66 3 14 11 17 38 15 112 -9
105 -10 108 28 1 19 7 51 13 70 9 30 8 41 -8 69 -10 19 -28 40 -41 49 -20 13
-22 12 -33 -12 -7 -14 -16 -26 -20 -26 -4 0 -23 22 -42 49 -20 27 -87 93 -151
147 -67 57 -122 111 -131 131 -24 51 -4 126 37 142 39 14 69 -1 144 -76z m434
-418 c33 -19 94 -19 160 1 51 15 55 15 67 -2 7 -10 13 -21 13 -24 0 -13 -156
-60 -196 -60 -35 0 -47 6 -73 35 -32 37 -36 47 -24 58 10 10 25 8 53 -8z
m2207 -85 c18 -11 39 -35 47 -53 8 -19 19 -38 25 -41 36 -22 -14 -75 -71 -76
l-38 0 0 45 c0 49 -16 58 -53 30 -22 -16 -47 -10 -47 12 0 25 41 84 64 93 31
13 38 12 73 -10z m-67 -245 c-6 -12 -35 -36 -64 -53 -43 -27 -62 -32 -114 -32
-66 0 -68 -1 -52 -31 18 -33 -14 -81 -100 -150 -66 -52 -86 -63 -111 -61 -30
4 -30 3 -23 -32 6 -33 4 -36 -18 -36 -14 0 -74 -34 -142 -81 -126 -87 -350
-201 -430 -219 -27 -6 -130 -14 -230 -19 -138 -6 -189 -11 -213 -24 -70 -37
-102 -3 -43 47 46 39 89 47 285 56 99 4 181 8 183 9 19 8 -106 109 -194 156
-24 13 -87 63 -139 112 -110 101 -171 140 -235 148 -69 9 -92 22 -88 48 3 21
8 22 78 22 103 -1 151 -26 259 -135 97 -98 217 -190 294 -225 56 -26 158 -55
192 -55 41 0 362 170 372 197 10 25 -27 53 -69 53 -28 0 -46 7 -63 25 -42 41
-28 85 27 85 18 0 33 8 43 23 8 13 27 29 41 36 35 16 66 -4 106 -70 l31 -49
46 37 c60 49 61 49 54 105 -9 78 8 94 109 103 56 4 104 16 148 34 53 23 66 25
68 13 2 -8 -1 -25 -8 -37z m211 -11 c12 -14 10 -19 -15 -38 -16 -11 -51 -43
-77 -70 -40 -39 -49 -55 -49 -83 l0 -35 -45 6 c-33 5 -51 3 -67 -8 -38 -27
-51 -21 -45 22 16 108 30 126 73 97 32 -21 37 -19 53 17 8 17 30 49 49 70 28
31 41 38 72 38 22 0 43 -7 51 -16z m-2104 -126 c6 -7 7 -35 4 -63 -5 -43 -9
-50 -30 -53 -35 -5 -71 6 -71 23 0 8 11 22 24 31 14 8 28 29 31 45 7 30 26 38
42 17z m1555 -303 c3 -3 3 -17 0 -31 -4 -20 -85 -90 -336 -290 -205 -163 -339
-264 -353 -264 -29 0 -77 62 -68 87 5 15 266 228 543 445 34 27 64 40 103 47
66 11 104 13 111 6z m-1279 -312 c13 -23 -29 -64 -196 -192 -207 -157 -229
-170 -252 -151 -33 28 -18 54 81 136 108 89 234 179 279 200 33 15 81 18 88 7z
m-630 -300 c156 -51 389 -243 296 -243 -11 0 -62 26 -113 58 -50 31 -138 82
-194 112 -95 51 -116 72 -95 93 10 11 20 9 106 -20z m-612 -1290 c104 -47 163
-154 139 -253 -17 -70 -59 -123 -119 -152 l-50 -24 94 -157 94 -157 -103 0
-103 0 -86 148 c-46 81 -92 148 -101 150 -14 3 -16 -14 -16 -147 l0 -151 -90
0 -90 0 0 386 0 386 193 -4 c168 -3 198 -6 238 -25z m549 -248 c36 -151 68
-275 72 -275 3 0 36 124 73 275 l67 276 105 -3 106 -3 63 -263 c34 -145 64
-266 67 -268 6 -6 8 3 61 263 25 122 48 234 52 248 6 25 8 25 105 25 98 0 99
0 94 -22 -4 -13 -52 -185 -109 -383 l-103 -360 -104 -3 -104 -3 -64 233 c-35
128 -67 239 -71 247 -6 10 -104 -316 -136 -451 l-6 -28 -103 0 c-90 0 -104 2
-109 18 -3 9 -50 177 -106 372 -55 195 -103 361 -105 368 -3 9 19 12 93 12
l97 0 65 -275z m1312 123 c36 -84 84 -201 108 -260 24 -60 47 -108 50 -108 3
0 53 116 112 258 l106 257 111 3 111 3 0 -386 0 -385 -95 0 -95 0 -2 213 -3
212 -44 -105 c-24 -58 -63 -153 -88 -213 l-45 -107 -68 0 -68 0 -45 108 c-25
59 -64 154 -88 212 l-44 105 -3 -212 -2 -213 -89 0 -88 0 -6 122 c-4 66 -7
240 -7 385 l0 263 109 0 109 0 64 -152z m1318 82 l0 -70 -155 0 -155 0 0 -85
0 -85 120 0 120 0 0 -70 0 -70 -120 0 -120 0 0 -160 0 -160 -95 0 -95 0 0 385
0 385 250 0 250 0 0 -70z"/>
<path d="M930 1115 l0 -95 80 0 c73 0 83 3 105 25 35 34 35 106 0 140 -22 22
-32 25 -105 25 l-80 0 0 -95z"/>
</g>
</svg>
